<svg xmlns="http://www.w3.org/2000/svg" xmlns:xlink="http://www.w3.org/1999/xlink" width="27" height="36" viewBox="0 0 27 36">
	<path fill="lightblue" d="M11.62 19.127l-2.084-1.083-1.75-2.167-.75-3.25 1-2.416 1.666-2 1.667-.833 1.083-.25 2.5.167 2.334 1.084 1.666 1.583.834 2.918-.5 2.416-.75 1.583-2.25 1.917-2.167.583-2.5-.25zm-5.084-16l-3.5 3.333-1.833 3.833-.084 3.333 1 5.75 4 7.167 7.166 8.5 1.333-.5 4.25-4.667 4-6.917 2.75-5.418.25-5.333L24.2 7.457l-3.5-4.333-4.5-1.5-4.25-.416-5.416 1.916z"/>
	<defs>
		<path id="a" d="M0 0h27v36H0z"/>
	</defs>
	<clipPath id="b"><use xlink:href="#a" overflow="visible"/></clipPath>
	<path clip-path="url(#b)" fill="#369" d="M27 13.5c0 2.438-.703 5.11-2.11 8.016-1.405 2.907-2.8 5.273-4.183 7.102-1.383 1.828-3.176 3.984-5.38 6.47l-.28.21c-.14.14-.352.294-.633.457-.28.164-.562.245-.844.245h-.14c-.61 0-1.196-.305-1.758-.914-2.204-2.484-3.997-4.64-5.38-6.47-1.382-1.827-2.776-4.193-4.183-7.1S0 15.937 0 13.5c0-3.75 1.312-6.937 3.937-9.562C6.562 1.313 9.75 0 13.5 0c3.75 0 6.937 1.313 9.563 3.938C25.687 6.563 27 9.75 27 13.5m-9.773 15.82c.89-1.125 2.026-2.672 3.41-4.64 1.382-1.97 2.413-3.89 3.094-5.767.68-1.875 1.02-3.68 1.02-5.415 0-3.094-1.1-5.74-3.304-7.945-2.205-2.2-4.852-3.303-7.946-3.303-3.094 0-5.743 1.102-7.945 3.305C3.35 7.76 2.25 10.405 2.25 13.5c0 1.735.34 3.54 1.02 5.415.678 1.876 1.71 3.797 3.093 5.766 1.382 1.97 2.52 3.517 3.41 4.642.89 1.125 2.085 2.556 3.586 4.29l.14.138.14-.14c1.5-1.734 2.695-3.165 3.587-4.29M6.75 13.22c0-1.875.656-3.47 1.97-4.782 1.31-1.312 2.905-1.97 4.78-1.97 1.874 0 3.468.658 4.78 1.97 1.313 1.313 1.97 2.907 1.97 4.78 0 1.876-.657 3.47-1.97 4.782-1.312 1.313-2.906 1.97-4.78 1.97-1.875 0-3.47-.657-4.78-1.97-1.314-1.312-1.97-2.906-1.97-4.78m1.125 0c0 1.546.55 2.87 1.652 3.972 1.1 1.102 2.426 1.652 3.973 1.652s2.87-.55 3.973-1.652c1.1-1.1 1.652-2.426 1.652-3.973s-.552-2.872-1.652-3.974c-1.102-1.1-2.426-1.652-3.973-1.652s-2.872.552-3.973 1.652c-1.102 1.102-1.652 2.426-1.652 3.973"/>
	<circle id="sd" class="medium" cx="50%" cy="40%" r="20%" fill="white" stroke="#369" stroke-width="5%" />
</svg>